<?xml version="1.0" encoding="utf-8"?>
<!-- Generator: Adobe Illustrator 15.1.0, SVG Export Plug-In . SVG Version: 6.00 Build 0)  -->
<!DOCTYPE svg PUBLIC "-//W3C//DTD SVG 1.1//EN" "http://www.w3.org/Graphics/SVG/1.1/DTD/svg11.dtd">
<svg version="1.1" id="Layer_1" xmlns="http://www.w3.org/2000/svg" xmlns:xlink="http://www.w3.org/1999/xlink" x="0px" y="0px"
	 width="100.5px" height="87.5px" viewBox="0 0 100.5 87.5" enable-background="new 0 0 100.5 87.5" xml:space="preserve">
<path fill-rule="evenodd" clip-rule="evenodd" d="M84.228,25.217c1.853,7.25,2.657,15.423,0,23.51
	c-1.094,3.328-3.075,6.604-5.05,9.311c-4.698,6.441-11.51,10.956-19.092,13.255c-15.979,3.245-29.022-2.535-36.607-11.835
	c-3.255-3.991-6.124-8.577-7.416-13.57c-1.538-5.944-1.33-12.125,0-18.935C20.919,12.457,31.854,2.328,48.567,1.075
	c1.06-0.08,2.144-0.067,3.157,0C67.84,2.136,79.038,11.649,84.228,25.217z M44.623,3.126c-8.719,1.474-15.106,5.405-20.04,11.044
	c-4.446,5.083-8.021,12.576-8.363,20.986c-0.383,9.432,3.6,18.572,8.836,24.3c4.942,5.404,11.801,9.382,18.935,10.73
	c15.538,2.936,29.35-5.328,35.819-16.568c1.896-3.297,4.013-7.437,4.417-11.992c0.255-2.87,0.707-4.292,0.475-6.627
	c-0.065-0.642-0.396-0.967-0.475-1.578c-0.088-0.688,0.069-1.356,0-2.051c-0.343-3.438-1.737-6.992-3.313-10.098
	c-4.71-9.285-12.998-16.27-24.772-18.146C53.083,2.105,47.714,2.202,44.623,3.126z"/>
<path fill-rule="evenodd" clip-rule="evenodd" d="M77.127,4.704c5.933,1.642,9.747,5.401,10.889,11.834
	C83.437,13.542,80.708,8.697,77.127,4.704z"/>
<path fill-rule="evenodd" clip-rule="evenodd" d="M12.434,16.854c0.873-6.438,4.907-9.714,10.256-11.677
	c0.282-0.044,0.324,0.149,0.158,0.158C19.337,9.136,17.055,14.164,12.434,16.854z"/>
<path fill-rule="evenodd" clip-rule="evenodd" d="M94.8,17.169c0.95,0.786,1.107,2.364,2.052,3.156
	c1.138,3.678,1.237,8.816,0,12.465c-1.146,1.38-1.476,3.573-1.894,5.68c-2.147-6.005-7.175-9.129-8.837-15.621
	c1.152,0.501,2.122,1.568,3.156,2.524c2.389,2.211,4.681,4.56,5.364,8.679c0.559-0.594,0.048-1.863,0-2.683
	c-0.271-4.687,0.866-9.985,0.158-13.728C94.61,17.436,94.738,17.395,94.8,17.169z"/>
<path fill-rule="evenodd" clip-rule="evenodd" d="M5.806,17.327c-1.127,5.066,0.958,11.209,0.158,17.515
	c0.957-0.67,0.565-1.859,0.789-2.682c1.122-4.122,5.148-5.993,7.416-9.152c-0.625,6.792-6.504,9.695-8.047,16.095
	c-0.899-2.624-1.383-4.79-2.682-7.1C2.009,26.979,3.081,20.973,5.806,17.327z"/>
<path fill-rule="evenodd" clip-rule="evenodd" d="M99.375,29.635c0.529,1.977,0.943,3.239,0.947,5.522
	c0.014,7.539-4.29,12.362-7.73,16.726c0.354-7.514-3.548-12.122-3.631-19.723c2.225,4.492,6.885,8.894,4.733,15.779
	c0.844-0.467,0.947-1.146,1.105-1.736c0.645-2.398,0.94-5.177,2.052-7.731C98.136,35.518,99.605,33.536,99.375,29.635z"/>
<path fill-rule="evenodd" clip-rule="evenodd" d="M0.915,31.055c0.184-0.025,0.281,0.035,0.315,0.158
	c0.591,5.325,3.671,9.07,4.734,13.886c0.279,1.266-0.018,2.618,0.947,3.628c0.615-0.493-0.086-1.476-0.158-2.05
	c-0.716-5.736,2.915-9.508,4.734-13.886c0.672,7.44-4.099,13.032-2.998,19.881C3.894,47.526-1.164,40.959,0.915,31.055z"/>
<path fill-rule="evenodd" clip-rule="evenodd" d="M11.487,44.151c2.586,5.768,1.024,14.826,4.103,20.197
	C8.917,59.66,0.668,56.547,0.441,45.414c1.407,3.886,4.629,6.281,7.258,9.152c1.664,1.817,2.533,4.177,4.576,5.681
	c-0.193-1.018-0.634-1.785-1.262-2.367C9.614,53.62,11.01,48.938,11.487,44.151z"/>
<path fill-rule="evenodd" clip-rule="evenodd" d="M80.44,78.708c-3.192,3.711-10.233,5.02-15.936,2.682
	c-2.629-1.633-5.048-3.474-7.733-5.049c-1.367,0-2.734,0-4.102,0c0.619,1.035,1.855,1.342,2.84,1.894
	c2.839,1.589,5.605,3.768,8.048,5.995c-0.398,0.706-0.852,1.358-1.736,1.578c-2.332-2.359-4.664-4.676-7.73-6.784
	c-0.947-0.651-1.983-1.755-2.841-1.895c-1.992-0.323-5.624,2.657-6.785,3.63c-2.1,1.756-3.501,3.385-5.049,5.207
	c-0.703-0.349-1.274-0.83-1.736-1.42c2.894-3.419,6.998-5.626,10.887-8.047c-5.138-1.431-8.088,3.071-11.518,4.891
	c-3.712,1.88-9.75,2.001-13.413,0c-0.41-0.946-2.443-1.238-2.998-2.524c10.04,4.811,15.537-4.449,26.352-3.629
	c1.924,0.146,3.12,0.827,4.891,0.315c1.036-0.3,2.515-0.454,3.629-0.473C64.778,74.91,70.96,82.912,80.44,78.708z"/>
<path fill-rule="evenodd" clip-rule="evenodd" d="M81.546,13.382c0-0.105,0-0.21,0-0.316c2.771,3.908,8.039,5.319,10.099,9.941
	c-0.44-2.558-1.521-5.843-2.367-8.521c-0.149-2.375-1.229-3.821-2.524-5.049c5.851,1.634,6.882,9.036,6.153,17.042
	C89.626,21.606,83.035,20.044,81.546,13.382z"/>
<path fill-rule="evenodd" clip-rule="evenodd" d="M13.064,10.068c-2.324,3.042-2.844,9.254-4.418,13.57
	c0.996-0.582,1.378-1.777,1.893-2.84c2.417-2.685,6.295-3.91,8.047-7.259c-0.646,6.928-7.856,8.658-10.888,13.728
	c0.258-2.257-0.312-4.625-0.315-6.943C7.377,15.435,9.526,11.788,13.064,10.068z"/>
<path fill-rule="evenodd" clip-rule="evenodd" d="M89.12,43.52c0.836,4.566,2.453,10.697,0.157,14.833
	c-0.345,0.392-0.65,0.823-0.789,1.421c2.508-2.131,3.887-5.095,6.153-7.417c2.199-2.253,4.773-4.444,5.681-7.889
	c0.211,10.993-8.351,14.582-14.831,19.407C87.997,58.746,87.147,49.784,89.12,43.52z"/>
<path fill-rule="evenodd" clip-rule="evenodd" d="M85.491,53.46c-0.822,2.399-0.715,5.245-1.264,8.048
	c-0.718,3.667-3.184,6.214-5.05,8.521c1.338-0.121,1.901-1.308,2.842-2.051c2.199-1.742,5.018-2.496,7.258-4.26
	c3.296-1.121,5.691-3.145,7.416-5.839c-0.042,1.905-1.702,3.558-2.366,5.365c-4.078,5.154-10.182,7.671-18.306,8.836
	C80.438,67.134,80.852,58.184,85.491,53.46z"/>
<path fill-rule="evenodd" clip-rule="evenodd" d="M15.274,54.249c4.803,3.824,5.048,13.571,9.783,17.988
	c-2.166-0.536-4.232-0.507-6.47-0.945C11.629,69.925,6.63,65.058,4.228,58.983c2.513,3.862,7.333,5.012,11.361,7.258
	c2.199,1.227,3.493,3.246,6.154,4.104c-1.036-1.486-1.888-2.201-3.156-3.471C16.625,63.522,16.482,58.353,15.274,54.249z"/>
<path fill-rule="evenodd" clip-rule="evenodd" d="M63.558,74.921c6.85-1.672,9.929-7.954,14.832-11.047
	c-1.852,3.986-3.426,8.252-7.574,9.942c-1.005-0.06-1.581,0.312-2.209,0.63c2.308,0.476,4.472-0.487,7.574-0.63
	c4.936-0.227,9.014-0.817,12.466-3.314c-0.909,2.094-4.438,4.291-6.944,5.839C75.589,78.391,69.33,76.184,63.558,74.921z"/>
<path fill-rule="evenodd" clip-rule="evenodd" d="M37.522,75.236c-4.27,0.522-7.89,2.352-12.465,2.366
	c-5.727,0.02-9.695-2.959-12.781-6.311c1.333,0.279,2.4,1.114,3.787,1.577c4.149,1.384,11.494,1.033,16.41,2.21
	c-0.288-1.133-1.907-0.934-2.998-1.263c-1.128-0.818-2.208-1.686-3.313-2.524c-1.163-2.31-2.383-4.562-3.63-6.785
	c0.009-0.376,0.08-0.203,0.158-0.158c2.291,1.304,4.409,3.871,6.785,6.153C31.799,72.735,34.502,74.155,37.522,75.236z"/>
<path fill-rule="evenodd" clip-rule="evenodd" d="M67.029,21.745c1.367-2.327,2.248-4.168,3.629-6.47
	c0.56-0.085,0.474,0.098,0.947,0.474c-0.319,3.89-2.392,6.025-3.156,9.468c0.056,0.207,0.276,0.248,0.314,0.473
	c3.38-0.987,5.601-4.901,8.205-4.891c0.322,2.043-2.493,3.062-3.471,4.733c0.964-0.193,1.247-1.068,2.367-1.104
	c-0.118,2.36-2.582,3.199-3.945,4.418c-2.578,2.304-3.901,6.424-7.573,7.89c-2.335,2.977-4.839,5.786-6.785,9.151
	c2.778,1.669,6.057,3.336,8.521,5.838c1.834,1.864,3.698,3.49,3.314,6.628c-0.404,3.285-3.568,4.962-6.154,6.469
	c-2.643-0.513-3.362-2.95-5.838-3.628c-2.352-2.067-4.684-4.152-6.786-6.471c-2.553,1.971-4.555,4.492-7.101,6.471
	c-2.591,0.351-3.176,3.612-5.68,3.628c-2.183,0.016-5.994-4.249-6.312-6.311c-0.13-0.847-0.043-1.843,0.158-2.524
	c1.446-4.916,7.82-7.734,11.676-9.941c-0.879-1.73-2.069-3.45-3.314-5.049c-1.165-1.499-2.376-3.302-3.787-4.418
	c-0.771-0.61-1.805-0.903-2.525-1.578c-1.783-1.672-2.566-4.188-4.418-5.838c-1.331-1.187-3.004-1.981-4.103-3.472
	c-0.133-0.393-0.207-0.846-0.158-1.42c0.771,0.228,1.234,0.614,1.916,0.931c-0.292-1.557-3.086-2.644-3.178-4.402
	c3.113-0.25,4.905,3.825,8.205,4.891c0.208-0.056,0.249-0.278,0.474-0.316c-0.413-3.521-4.479-8.397-2.421-9.87
	c1.415,0.556,2.217,3.658,3.368,5.61c-0.247-1.911-1.701-3.979-2.209-6.153c2.059,0.043,2.496,1.679,3.471,3.313
	c1.129,1.893,2.232,3.977,3.787,5.681c0.51-1.13-1.924-3.299,0-3.945c0.548,1.339,1.472,2.356,2.367,3.629
	c0.726,1.032,2.192,2.221,2.525,3.313c0.583,1.915-0.167,3.912,0.473,6.312c2.381,2.3,3.734,5.627,6.627,7.416
	c2.883-1.746,4.114-5.142,6.627-7.258c0.69-2.405-0.118-4.312,0.474-6.312c0.379-1.285,1.707-2.323,2.524-3.471
	c0.876-1.231,1.764-2.37,2.366-3.629c1.726,0.634-0.13,2.651-0.157,3.945c1.176-1.234,3.178-3.85,4.102-5.681
	c0.679-1.34,0.99-3.224,2.988-3.293C69.611,17.009,67.839,19.453,67.029,21.745z"/>
</svg>
